<?xml version="1.0" encoding="UTF-8"?>
<svg version="1.1" xmlns="http://www.w3.org/2000/svg" width="500" height="500">
<path d="M0 0 C165 0 330 0 500 0 C500 165 500 330 500 500 C335 500 170 500 0 500 C0 335 0 170 0 0 Z " fill="#141010" transform="translate(0,0)"/>
<path d="M0 0 C0.8991362 -0.00807175 1.7982724 -0.01614349 2.72465515 -0.02445984 C4.63209087 -0.03831816 6.53955158 -0.04903246 8.44702148 -0.05688477 C11.36424866 -0.07408625 14.2803395 -0.11795464 17.19726562 -0.16210938 C19.04816873 -0.17223685 20.89908149 -0.18075278 22.75 -0.1875 C23.62304276 -0.20500809 24.49608551 -0.22251617 25.39558411 -0.24055481 C31.37870288 -0.21913848 31.37870288 -0.21913848 34.4440918 1.796875 C36.54988765 4.95068039 38.05412703 8.23052119 39.48046875 11.7265625 C39.79777451 12.48195816 40.11508026 13.23735382 40.44200134 14.01564026 C41.13167113 15.66043884 41.81700525 17.30706058 42.49850464 18.95526123 C43.58818536 21.58448037 44.69439903 24.20618627 45.80493164 26.82666016 C49.61701119 35.84397614 53.3497024 44.88837014 56.97335815 53.98313904 C58.70488563 58.31332324 60.46631341 62.63102372 62.23144531 66.94760132 C63.08276619 69.05262774 63.91963238 71.16355967 64.74169922 73.28018188 C65.89947872 76.25832305 67.10414354 79.21328561 68.3203125 82.16796875 C68.65224106 83.05883682 68.98416962 83.9497049 69.32615662 84.86756897 C70.38192593 87.35302044 71.26722978 89.2276444 73.07421875 91.23828125 C76.38301629 92.55021193 79.53293225 93.03036202 83.07421875 93.23828125 C84.41683117 99.707232 84.41683117 99.707232 82.82421875 102.17578125 C81.07421875 103.23828125 81.07421875 103.23828125 78.07421875 103.23828125 C85.00421875 119.40828125 91.93421875 135.57828125 99.07421875 152.23828125 C99.07421875 105.37828125 99.07421875 58.51828125 99.07421875 10.23828125 C96.24152209 8.82193292 93.59955437 8.89198075 90.44921875 8.67578125 C89.26070313 8.59199219 88.0721875 8.50820312 86.84765625 8.421875 C85.93242187 8.36128906 85.0171875 8.30070313 84.07421875 8.23828125 C84.07421875 5.59828125 84.07421875 2.95828125 84.07421875 0.23828125 C104.53421875 0.23828125 124.99421875 0.23828125 146.07421875 0.23828125 C146.07421875 2.54828125 146.07421875 4.85828125 146.07421875 7.23828125 C140.79421875 7.23828125 135.51421875 7.23828125 130.07421875 7.23828125 C130.40421875 31.98828125 130.73421875 56.73828125 131.07421875 82.23828125 C135.36421875 78.27828125 139.65421875 74.31828125 144.07421875 70.23828125 C148.26171875 66.55078125 148.26171875 66.55078125 150.1171875 64.9453125 C152.45981025 62.90194694 154.76695297 60.82147266 157.07421875 58.73828125 C160.6909822 55.47437277 164.33811483 52.25037176 168.01171875 49.05078125 C170.38386304 46.96616961 172.7297794 44.85399481 175.07421875 42.73828125 C178.6909822 39.47437277 182.33811483 36.25037176 186.01171875 33.05078125 C188.38386304 30.96616961 190.7297794 28.85399481 193.07421875 26.73828125 C198.51475549 21.83355494 204.00875662 17.00012473 209.578125 12.2421875 C210.51736816 11.43938354 210.51736816 11.43938354 211.47558594 10.62036133 C212.72905704 9.54991494 213.98357936 8.48069802 215.23925781 7.4128418 C215.82030273 6.91695557 216.40134766 6.42106934 217 5.91015625 C217.51989502 5.46768555 218.03979004 5.02521484 218.57543945 4.56933594 C220.12717887 3.24540087 220.12717887 3.24540087 221.52929688 1.58959961 C224.24492395 -0.78571579 227.83610726 -0.06589897 231.26171875 0.05078125 C232.01130859 0.06431641 232.76089844 0.07785156 233.53320312 0.09179688 C235.38051642 0.12709586 237.22745941 0.18090208 239.07421875 0.23828125 C235.39346661 3.96683536 231.61746279 7.56649652 227.76171875 11.11328125 C227.18703857 11.64284424 226.6123584 12.17240723 226.02026367 12.71801758 C222.4024257 16.04264116 218.74701387 19.31613642 215.03125 22.53125 C212.68862725 24.57461556 210.38148453 26.65508984 208.07421875 28.73828125 C204.4574553 32.00218973 200.81032267 35.22619074 197.13671875 38.42578125 C194.76457446 40.51039289 192.4186581 42.62256769 190.07421875 44.73828125 C186.4574553 48.00218973 182.81032267 51.22619074 179.13671875 54.42578125 C176.76457446 56.51039289 174.4186581 58.62256769 172.07421875 60.73828125 C160.13878631 71.50033785 160.13878631 71.50033785 154.07421875 76.23828125 C155.57428266 79.68607211 157.57831137 82.06188658 160.13671875 84.80078125 C163.40440348 88.36125053 166.53901068 91.97761045 169.57421875 95.73828125 C172.48235255 99.33305775 175.45963207 102.82088753 178.57421875 106.23828125 C182.49313127 110.53819916 186.16592744 114.99747672 189.82421875 119.51953125 C192.71897586 123.01736276 195.77011414 126.35613529 198.828125 129.7109375 C201.13609473 132.30790518 203.32977738 134.97232138 205.51171875 137.67578125 C208.58758463 141.47915628 211.76175041 145.13910777 215.07421875 148.73828125 C219.18800784 153.20813245 223.04509172 157.82873018 226.859375 162.5546875 C229.03054702 165.18536682 231.27663232 167.71770549 233.57421875 170.23828125 C240.53135822 177.88749219 246.90760718 185.94610157 253.07421875 194.23828125 C248.50288054 194.4122927 243.93349827 194.53878585 239.35961914 194.62280273 C237.80654292 194.65784667 236.25369504 194.70549982 234.70141602 194.76635742 C221.86201081 195.25685155 221.86201081 195.25685155 217.60083008 192.82910156 C215.81482523 191.06820456 214.44888808 189.33062297 213.07421875 187.23828125 C212.33816406 186.36945313 211.60210937 185.500625 210.84375 184.60546875 C210.19792969 183.78304687 209.55210937 182.960625 208.88671875 182.11328125 C205.4366072 177.82268255 201.83651623 173.75159637 198.07421875 169.73828125 C194.44454975 165.86371755 190.95672458 161.9492656 187.63671875 157.80078125 C183.60910746 152.779059 179.28076019 148.11245364 174.87133789 143.42993164 C170.8506383 139.13684125 167.12417481 134.67572633 163.44921875 130.08203125 C160.08594209 126.05494999 156.4857882 122.26697032 152.88867188 118.44946289 C148.72547075 114.00614061 144.84695831 109.42286714 141.07421875 104.640625 C139.0373443 102.10997482 139.0373443 102.10997482 136.32421875 99.5546875 C134.07421875 97.23828125 134.07421875 97.23828125 134.07421875 95.23828125 C132.75421875 95.56828125 131.43421875 95.89828125 130.07421875 96.23828125 C130.07421875 126.26828125 130.07421875 156.29828125 130.07421875 187.23828125 C135.35421875 187.23828125 140.63421875 187.23828125 146.07421875 187.23828125 C146.07421875 189.87828125 146.07421875 192.51828125 146.07421875 195.23828125 C125.61421875 195.23828125 105.15421875 195.23828125 84.07421875 195.23828125 C84.07421875 192.59828125 84.07421875 189.95828125 84.07421875 187.23828125 C88.69421875 187.23828125 93.31421875 187.23828125 98.07421875 187.23828125 C97.39101562 185.6759375 96.7078125 184.11359375 96.00390625 182.50390625 C88.83605653 166.0610904 81.78244542 149.56999411 74.77667236 133.05749512 C73.76468425 130.67326237 72.75145477 128.28955614 71.73699951 125.90637207 C70.29763101 122.52372995 68.86301434 119.13911203 67.4296875 115.75390625 C66.98965897 114.72185059 66.54963043 113.68979492 66.0962677 112.62646484 C65.69735825 111.6814209 65.29844879 110.73637695 64.88745117 109.76269531 C64.5358342 108.93384827 64.18421722 108.10500122 63.82194519 107.2510376 C63.07421875 105.23828125 63.07421875 105.23828125 63.07421875 103.23828125 C53.50421875 103.23828125 43.93421875 103.23828125 34.07421875 103.23828125 C34.40421875 130.29828125 34.73421875 157.35828125 35.07421875 185.23828125 C38.70421875 186.22828125 42.33421875 187.21828125 46.07421875 188.23828125 C46.73421875 188.56828125 47.39421875 188.89828125 48.07421875 189.23828125 C47.74421875 190.88828125 47.41421875 192.53828125 47.07421875 194.23828125 C28.26421875 194.23828125 9.45421875 194.23828125 -9.92578125 194.23828125 C-9.92578125 192.58828125 -9.92578125 190.93828125 -9.92578125 189.23828125 C-8.68828125 188.78453125 -7.45078125 188.33078125 -6.17578125 187.86328125 C-0.65701899 186.16241128 -0.65701899 186.16241128 3.07421875 182.23828125 C3.1963736 179.73705795 3.25985156 177.26180138 3.27954102 174.75927734 C3.29439041 173.60304115 3.29439041 173.60304115 3.30953979 172.42344666 C3.34118705 169.86956885 3.36592492 167.31567243 3.390625 164.76171875 C3.41119175 162.9933727 3.43218814 161.2250316 3.45359802 159.45669556 C3.50884756 154.79768882 3.55824411 150.1386375 3.60644531 145.47955322 C3.65663931 140.72721378 3.71233633 135.97493923 3.76757812 131.22265625 C3.87519494 121.89458666 3.97663208 112.56646078 4.07421875 103.23828125 C2.93533203 103.29048828 2.93533203 103.29048828 1.7734375 103.34375 C0.77957031 103.37082031 -0.21429688 103.39789063 -1.23828125 103.42578125 C-2.22441406 103.46058594 -3.21054688 103.49539063 -4.2265625 103.53125 C-6.92578125 103.23828125 -6.92578125 103.23828125 -8.79296875 101.953125 C-9.92578125 100.23828125 -9.92578125 100.23828125 -9.73828125 96.61328125 C-9.47015625 95.49953125 -9.20203125 94.38578125 -8.92578125 93.23828125 C-6.28119746 91.91598936 -4.24816824 92.14150931 -1.30078125 92.17578125 C0.20355469 92.18931641 0.20355469 92.18931641 1.73828125 92.203125 C2.50914062 92.21472656 3.28 92.22632813 4.07421875 92.23828125 C4.01302607 82.00686567 3.93593322 71.77570557 3.83850384 61.54456711 C3.79376437 56.79388879 3.75451618 52.04329694 3.7277832 47.29248047 C3.70178584 42.70819742 3.66140888 38.12424648 3.61103249 33.54016876 C3.59433959 31.7907143 3.58284041 30.04120237 3.57660484 28.29167938 C3.56698995 25.84221021 3.53896305 23.39359534 3.5065918 20.94433594 C3.50802689 20.2200087 3.50946198 19.49568146 3.51094055 18.74940491 C3.43439789 14.65787709 3.06114218 12.14330339 0.07421875 9.23828125 C-2.1452738 8.37333758 -2.1452738 8.37333758 -4.55078125 8.05078125 C-8.85924505 7.30481745 -8.85924505 7.30481745 -9.92578125 6.23828125 C-10.05078125 3.73828125 -10.05078125 3.73828125 -9.92578125 1.23828125 C-7.78716441 -0.90033559 -2.9642506 0.02490767 0 0 Z " fill="#FC5656" transform="translate(129.92578125,166.76171875)"/>
<path d="M0 0 C4.95 0 9.9 0 15 0 C15.495 20.295 15.495 20.295 16 41 C24.64863147 31.25338924 24.64863147 31.25338924 28 24 C26.35 23.34 24.7 22.68 23 22 C26.70589056 18.91291669 30.57910265 16.26249668 34.6875 13.75 C35.55858398 13.20472656 35.55858398 13.20472656 36.44726562 12.6484375 C40.7534657 10 40.7534657 10 43 10 C44.24911667 17.65083958 44.09053426 25.27440986 44 33 C42.02 32.67 40.04 32.34 38 32 C37.47792969 32.79921875 36.95585937 33.5984375 36.41796875 34.421875 C32.34471892 40.5420689 28.08706266 46.3156376 23.125 51.75 C22.4292688 52.51908691 22.4292688 52.51908691 21.71948242 53.30371094 C19.49301222 55.68674571 18.14756005 56.95081332 15 58 C15.33 66.58 15.66 75.16 16 84 C17.65 83.01 19.3 82.02 21 81 C21.66 81 22.32 81 23 81 C22.9685791 79.79670044 22.9685791 79.79670044 22.93652344 78.5690918 C22.85348684 74.94202152 22.80137796 71.31515094 22.75 67.6875 C22.71648437 66.42486328 22.68296875 65.16222656 22.6484375 63.86132812 C22.62910156 62.04858398 22.62910156 62.04858398 22.609375 60.19921875 C22.5779541 58.52605591 22.5779541 58.52605591 22.54589844 56.8190918 C23 54 23 54 25.02441406 52.11254883 C25.67635742 51.74540771 26.32830078 51.3782666 27 51 C30.13900641 78.16930783 30.13900641 78.16930783 25.37548828 85.5 C20.89363345 89.52016411 15.49877079 91.62492955 9.93554688 93.76513672 C4.84218054 95.90770549 0.26084954 98.92618724 -4.4375 101.8125 C-6.15473522 102.85751406 -7.8820089 103.88629761 -9.62109375 104.89453125 C-10.3473999 105.32612549 -11.07370605 105.75771973 -11.82202148 106.20239258 C-14.63355968 107.23201877 -16.16302082 106.86962963 -19 106 C-20.82666016 105.14306641 -20.82666016 105.14306641 -22.5390625 104.1015625 C-23.19310059 103.7096875 -23.84713867 103.3178125 -24.52099609 102.9140625 C-25.21531738 102.48867187 -25.90963867 102.06328125 -26.625 101.625 C-28.12970414 100.72051486 -29.63493373 99.81690342 -31.140625 98.9140625 C-31.92759766 98.44000977 -32.71457031 97.96595703 -33.52539062 97.47753906 C-38.59513392 94.45049817 -43.72427631 91.52496611 -48.84228516 88.58056641 C-49.60331543 88.14147949 -50.3643457 87.70239258 -51.1484375 87.25 C-51.82052246 86.86328125 -52.49260742 86.4765625 -53.18505859 86.078125 C-54.8228144 85.10525311 -56.41500997 84.05666002 -58 83 C-58.42132568 80.93963623 -58.42132568 80.93963623 -58.48339844 78.37011719 C-58.51222107 77.40861755 -58.5410437 76.44711792 -58.57073975 75.45648193 C-58.58348938 74.41381165 -58.59623901 73.37114136 -58.609375 72.296875 C-58.62647522 71.22632874 -58.64357544 70.15578247 -58.66119385 69.05279541 C-58.68957189 66.78317178 -58.70915702 64.51342401 -58.72070312 62.24365234 C-58.74978104 58.77611084 -58.84276313 55.3139401 -58.9375 51.84765625 C-58.95709516 49.64326088 -58.97284462 47.4388273 -58.984375 45.234375 C-59.02141541 44.19980164 -59.05845581 43.16522827 -59.09661865 42.0993042 C-59.03160951 35.06566404 -59.03160951 35.06566404 -56.17233276 32.11199951 C-53.8494187 30.5351086 -51.51306987 29.24815633 -49 28 C-47.81409861 27.30140064 -46.63210558 26.59608991 -45.45556641 25.88183594 C-44.34874512 25.25567383 -43.24192383 24.62951172 -42.1015625 23.984375 C-41.19910294 23.47151947 -41.19910294 23.47151947 -40.27841187 22.94830322 C-38.39571005 21.87904497 -36.51052253 20.81427487 -34.625 19.75 C-32.71852149 18.67064283 -30.81259722 17.59032304 -28.90731812 16.5088501 C-27.19529649 15.53755393 -25.48172544 14.5689903 -23.76806641 13.60058594 C-21.80593567 12.46601819 -19.88587481 11.25724987 -18 10 C-11.69914708 10.12601706 -7.22305793 12.79036576 -2 16 C-2 17.65 -2 19.3 -2 21 C-5.08760709 19.87723379 -7.78529371 18.54226857 -10.5625 16.8125 C-13.65284718 14.75845063 -13.65284718 14.75845063 -15.98168945 15.26586914 C-18.02614732 16.0095107 -19.83283139 16.87065262 -21.73046875 17.93359375 C-22.81424805 18.5378418 -22.81424805 18.5378418 -23.91992188 19.15429688 C-24.66822266 19.57775391 -25.41652344 20.00121094 -26.1875 20.4375 C-26.88552734 20.82615234 -27.58355469 21.21480469 -28.30273438 21.61523438 C-29.87724958 22.49789634 -31.43529926 23.4102641 -32.98022461 24.34375 C-35.43657572 25.69097984 -37.76191225 26.72849295 -40.34985352 27.765625 C-45.12841971 29.85000922 -49.59605386 31.94363685 -53 36 C-55.84264069 43.27612044 -54.92052885 51.47755129 -54.5625 59.125 C-54.52540071 61.24727379 -54.4960305 63.36969757 -54.47460938 65.4921875 C-54.40564501 70.66748163 -54.23166974 75.82953807 -54 81 C-51.36 81 -48.72 81 -46 81 C-45.67 74.4 -45.34 67.8 -45 61 C-40.05 61 -35.1 61 -30 61 C-30 65.62 -30 70.24 -30 75 C-28.02 74.01 -26.04 73.02 -24 72 C-23.67 60.45 -23.34 48.9 -23 37 C-18.05 37 -13.1 37 -8 37 C-8 45.25 -8 53.5 -8 62 C-1.04112021 58.08513846 -1.04112021 58.08513846 -0.12025452 54.23478699 C-0.11803391 53.23329117 -0.11581329 52.23179535 -0.11352539 51.19995117 C-0.09403336 50.05914597 -0.07454132 48.91834076 -0.05445862 47.7429657 C-0.06871384 46.52196671 -0.08296906 45.30096771 -0.09765625 44.04296875 C-0.08536484 42.78486893 -0.07307343 41.5267691 -0.06040955 40.23054504 C-0.0340325 36.89727014 -0.03760175 33.56678037 -0.05578613 30.23364258 C-0.06696039 26.82813544 -0.03862525 23.42297827 -0.01367188 20.01757812 C0.02722045 13.34466069 0.02497587 6.67298291 0 0 Z " fill="#F35757" transform="translate(257,50)"/>
<path d="M0 0 C4.62 0 9.24 0 14 0 C14.29916084 6.04611727 14.51549943 12.08783593 14.65917969 18.13964844 C14.71912154 20.19249575 14.80071481 22.24483953 14.90527344 24.29589844 C15.79602119 42.23311303 15.79602119 42.23311303 11.34570312 48.09960938 C8.51488998 51.19830026 5.51153333 53.70602733 2 56 C1.34 56 0.68 56 0 56 C0 37.52 0 19.04 0 0 Z " fill="#D9D8D8" transform="translate(257,50)"/>
<path d="M0 0 C0.66 0 1.32 0 2 0 C5.13566639 7.2437812 8.26853277 14.48876847 11.39941406 21.73461914 C12.46561517 24.20178733 13.5327215 26.66856107 14.60058594 29.13500977 C16.13125388 32.67130708 17.65961047 36.20859528 19.1875 39.74609375 C19.90933472 41.41169594 19.90933472 41.41169594 20.64575195 43.11094666 C21.0862085 44.13192947 21.52666504 45.15291229 21.98046875 46.20483398 C22.37129639 47.10862289 22.76212402 48.0124118 23.16479492 48.94358826 C24 51 24 51 24 52 C16.08 52 8.16 52 0 52 C0 34.84 0 17.68 0 0 Z " fill="#191111" transform="translate(164,207)"/>
<path d="M0 0 C2.75 -0.3125 2.75 -0.3125 6 0 C9.78517416 3.84501881 11.61772956 8.2803455 13.625 13.1875 C16.63420135 20.56614332 16.63420135 20.56614332 23 25 C22.505 25.495 22.505 25.495 22 26 C16.04774849 25.88553362 16.04774849 25.88553362 13.4609375 23.69921875 C11.37053693 21.23596895 10.02303958 19.06911875 9 16 C6.69 15.67 4.38 15.34 2 15 C2 16.65 2 18.3 2 20 C1.01 20.33 0.02 20.66 -1 21 C0.98 21.99 2.96 22.98 5 24 C5 24.33 5 24.66 5 25 C-2.38461538 25.36923077 -2.38461538 25.36923077 -5.5 23.5 C-5.995 23.005 -6.49 22.51 -7 22 C-7.33 22.99 -7.66 23.98 -8 25 C-11.57648202 26.78824101 -15.15100787 26.59670129 -19 26 C-23.51170921 24.2651163 -27.67452918 22.18550105 -32 20 C-31.505 11.09 -31.505 11.09 -31 2 C-29.68 2 -28.36 2 -27 2 C-26.67 7.94 -26.34 13.88 -26 20 C-24.35 20.33 -22.7 20.66 -21 21 C-21 14.4 -21 7.8 -21 1 C-18.69 1 -16.38 1 -14 1 C-14.33 3.97 -14.66 6.94 -15 10 C-14.34 10 -13.68 10 -13 10 C-12.731875 9.4225 -12.46375 8.845 -12.1875 8.25 C-10.98280141 5.9674132 -9.59201885 4.0262058 -8 2 C-7.34 2.33 -6.68 2.66 -6 3 C-7.32 4.65 -8.64 6.3 -10 8 C-8.63356852 11.98542514 -6.89890986 14.92539863 -4 18 C-3.01 18 -2.02 18 -1 18 C-0.1319092 16.08959948 0.71901783 14.17139263 1.5625 12.25 C2.03816406 11.18265625 2.51382813 10.1153125 3.00390625 9.015625 C3.99881288 6.00359394 4.36617927 4.82131905 3 2 C2.01 1.34 1.02 0.68 0 0 Z " fill="#312E2E" transform="translate(178,393)"/>
<path d="M0 0 C4.95 0 9.9 0 15 0 C16.6814046 23.65855163 16.6814046 23.65855163 12.69140625 29.21484375 C9.80239427 30.96820162 7.23656699 32.05976825 4 33 C2.68 33.66 1.36 34.32 0 35 C0 23.45 0 11.9 0 0 Z " fill="#D4D4D4" transform="translate(234,87)"/>
<path d="M0 0 C1.90828972 22.80406211 1.90828972 22.80406211 -1.14550781 27.91845703 C-4.61440656 31.17447567 -9.25089821 33 -14 33 C-16.0704144 13.40334397 -16.0704144 13.40334397 -12.74023438 7.92919922 C-9.90126564 4.94204256 -4.34609856 0 0 0 Z " fill="#D9D7D7" transform="translate(271,110)"/>
<path d="M0 0 C2.5390625 -0.4375 2.5390625 -0.4375 6 0 C8.78490233 2.02210088 11.04394756 4.47915414 13.375 7 C14.01566406 7.66773438 14.65632812 8.33546875 15.31640625 9.0234375 C16.89152269 10.66908154 18.44767216 12.33284243 20 14 C20 10.37 20 6.74 20 3 C28.91 3 37.82 3 47 3 C46.67 4.32 46.34 5.64 46 7 C44.02 6.34 42.04 5.68 40 5 C40.495 13.415 40.495 13.415 41 22 C39.02 22 37.04 22 35 22 C35.33 16.39 35.66 10.78 36 5 C33.36 5 30.72 5 28 5 C28 6.65 28 8.3 28 10 C27.67 10 27.34 10 27 10 C26.89158049 11.91541138 26.81421921 13.83259773 26.75 15.75 C26.68039063 17.35101563 26.68039063 17.35101563 26.609375 18.984375 C27.08264522 22.63802112 28.19155042 23.72228105 31 26 C26.75954199 25.528838 24.76124502 22.94670178 22 20 C20.39987913 18.39179771 18.79544264 16.78788178 17.1875 15.1875 C15.79166667 13.79166667 14.39583333 12.39583333 13 11 C13 14.63 13 18.26 13 22 C11.02 22 9.04 22 7 22 C7 16.06 7 10.12 7 4 C4.69 3.01 2.38 2.02 0 1 C0 0.67 0 0.34 0 0 Z " fill="#C9C9C9" transform="translate(189,391)"/>
<path d="M0 0 C0.14496508 3.77043032 0.23395607 7.54014742 0.3125 11.3125 C0.3753418 12.9202832 0.3753418 12.9202832 0.43945312 14.56054688 C0.45556641 15.58857422 0.47167969 16.61660156 0.48828125 17.67578125 C0.51446533 18.62364502 0.54064941 19.57150879 0.56762695 20.5480957 C0 23 0 23 -2.33911133 24.84057617 C-5.74512581 26.32467222 -7.46765686 26.05218732 -11 25 C-13.16796875 23.92578125 -13.16796875 23.92578125 -15 22 C-15.29642569 19.28770497 -15.38061189 17.00260268 -15.25 14.3125 C-15.23195312 13.61060547 -15.21390625 12.90871094 -15.1953125 12.18554688 C-15.14826213 10.45644564 -15.07651873 8.72804795 -15 7 C-12.68868934 5.83092416 -10.37604377 4.66464108 -8.0625 3.5 C-7.40314453 3.16613281 -6.74378906 2.83226562 -6.06445312 2.48828125 C-1.11328125 0 -1.11328125 0 0 0 Z " fill="#D6D4D4" transform="translate(249,126)"/>
<path d="M0 0 C3.14077624 -0.54963584 5.23305387 -0.50664926 7.93359375 1.27734375 C12.76667631 5.43209893 16.90111106 10.13256938 21 15 C21.33 11.37 21.66 7.74 22 4 C21.34 3.67 20.68 3.34 20 3 C26.27 3 32.54 3 39 3 C39 9.27 39 15.54 39 22 C37.02 22 35.04 22 33 22 C33.33 16.39 33.66 10.78 34 5 C32.35 5 30.7 5 29 5 C28.67 5.99 28.34 6.98 28 8 C27.67 7.67 27.34 7.34 27 7 C26.12086039 15.26680203 26.12086039 15.26680203 28.11328125 23.04296875 C29.58969617 24.54460668 29.58969617 24.54460668 32 26 C27.03469899 25.62083156 24.61712166 23.09870178 21.375 19.625 C20.89804688 19.13 20.42109375 18.635 19.9296875 18.125 C18.61269731 16.75679353 17.3059604 15.37873838 16 14 C15.01 13.01 14.02 12.02 13 11 C13 14.63 13 18.26 13 22 C11.35 22 9.7 22 8 22 C8.06960937 20.21142578 8.06960937 20.21142578 8.140625 18.38671875 C8.17814311 16.82033753 8.21454323 15.25392924 8.25 13.6875 C8.28351563 12.90181641 8.31703125 12.11613281 8.3515625 11.30664062 C8.55919908 6.70751559 8.55919908 6.70751559 6.125 3.03125 C5.42375 2.6909375 4.7225 2.350625 4 2 C3.2575 1.608125 2.515 1.21625 1.75 0.8125 C1.1725 0.544375 0.595 0.27625 0 0 Z " fill="#BDBDBD" transform="translate(103,391)"/>
<path d="M0 0 C2.75 -0.3125 2.75 -0.3125 6 0 C9.78517416 3.84501881 11.61772956 8.2803455 13.625 13.1875 C16.63420135 20.56614332 16.63420135 20.56614332 23 25 C22.505 25.495 22.505 25.495 22 26 C16.04774849 25.88553362 16.04774849 25.88553362 13.4609375 23.69921875 C11.37053693 21.23596895 10.02303958 19.06911875 9 16 C6.69 15.67 4.38 15.34 2 15 C2 16.65 2 18.3 2 20 C1.01 20.33 0.02 20.66 -1 21 C0.98 21.99 2.96 22.98 5 24 C5 24.33 5 24.66 5 25 C-1.81948376 25.83748046 -1.81948376 25.83748046 -4.94921875 23.6171875 C-6.74384905 21.81866429 -8.38156499 19.95765245 -10 18 C-11.2375 16.700625 -11.2375 16.700625 -12.5 15.375 C-14 13 -14 13 -14.0625 10.5625 C-12.61095176 7.06170719 -10.54464513 4.80563437 -8 2 C-7.34 2.33 -6.68 2.66 -6 3 C-7.32 4.65 -8.64 6.3 -10 8 C-8.63356852 11.98542514 -6.89890986 14.92539863 -4 18 C-3.01 18 -2.02 18 -1 18 C-0.1319092 16.08959948 0.71901783 14.17139263 1.5625 12.25 C2.03816406 11.18265625 2.51382813 10.1153125 3.00390625 9.015625 C3.99881288 6.00359394 4.36617927 4.82131905 3 2 C2.01 1.34 1.02 0.68 0 0 Z " fill="#C3C2C2" transform="translate(178,393)"/>
<path d="M0 0 C4.62 0 9.24 0 14 0 C14 4.95 14 9.9 14 15 C1.125 20 1.125 20 0 20 C0 13.4 0 6.8 0 0 Z " fill="#D9D8D8" transform="translate(212,111)"/>
<path d="M0 0 C1.74965358 -0.05429959 3.49979787 -0.09292823 5.25 -0.125 C6.22453125 -0.14820313 7.1990625 -0.17140625 8.203125 -0.1953125 C11.05597428 0.00390882 12.63861772 0.41852379 15 2 C16 4.375 16 4.375 16 7 C14 9.1640625 14 9.1640625 12 11 C13.35976901 12.63776623 14.73854764 14.25976012 16.125 15.875 C16.89070313 16.77992188 17.65640625 17.68484375 18.4453125 18.6171875 C21.22694207 21.21167379 23.34709892 22.07883364 27 23 C27 23.33 27 23.66 27 24 C19.04764483 24.77964266 19.04764483 24.77964266 15.3125 22 C14.549375 21.01 13.78625 20.02 13 19 C12.46117187 18.32582031 11.92234375 17.65164063 11.3671875 16.95703125 C7 11.38125 7 11.38125 7 9 C7.99 8.67 8.98 8.34 10 8 C10 6.35 10 4.7 10 3 C8.68 2.67 7.36 2.34 6 2 C6 7.61 6 13.22 6 19 C4.35 19 2.7 19 1 19 C1.01160156 17.79601562 1.02320313 16.59203125 1.03515625 15.3515625 C1.04453434 13.77604321 1.05363452 12.20052225 1.0625 10.625 C1.07087891 9.8309375 1.07925781 9.036875 1.08789062 8.21875 C1.23040151 3.97607778 1.23040151 3.97607778 0 0 Z " fill="#CCCCCC" transform="translate(301,394)"/>
<path d="M0 0 C0.99 0.33 1.98 0.66 3 1 C2.34 1.66 1.68 2.32 1 3 C0.72285104 5.13252093 0.72285104 5.13252093 0.8046875 7.5703125 C0.81113281 8.46621094 0.81757813 9.36210937 0.82421875 10.28515625 C0.84097656 11.22230469 0.85773438 12.15945313 0.875 13.125 C0.88402344 14.06988281 0.89304688 15.01476562 0.90234375 15.98828125 C0.92595478 18.32577292 0.95888484 20.66276123 1 23 C-0.98 23 -2.96 23 -5 23 C-4.505 18.545 -4.505 18.545 -4 14 C-6.64 14 -9.28 14 -12 14 C-11.96519531 14.67546875 -11.93039063 15.3509375 -11.89453125 16.046875 C-11.86746094 16.93890625 -11.84039062 17.8309375 -11.8125 18.75 C-11.77769531 19.63171875 -11.74289063 20.5134375 -11.70703125 21.421875 C-12.05076316 24.44671583 -13.00227459 25.75583602 -15 28 C-16.32 27.67 -17.64 27.34 -19 27 C-18.01 25.515 -18.01 25.515 -17 24 C-16.71016308 22.00445247 -16.71016308 22.00445247 -16.76953125 19.83984375 C-16.77146484 19.04642578 -16.77339844 18.25300781 -16.77539062 17.43554688 C-16.78763672 16.61119141 -16.79988281 15.78683594 -16.8125 14.9375 C-16.81314453 14.10927734 -16.81378906 13.28105469 -16.81445312 12.42773438 C-16.71605918 8.06500013 -16.71605918 8.06500013 -18 4 C-15.36 4 -12.72 4 -10 4 C-10.66 6.97 -11.32 9.94 -12 13 C-9.36 13 -6.72 13 -4 13 C-4.04640625 12.39671875 -4.0928125 11.7934375 -4.140625 11.171875 C-4.43910806 4.5626072 -4.43910806 4.5626072 -2 1.4375 C-1.34 0.963125 -0.68 0.48875 0 0 Z " fill="#C5C5C5" transform="translate(255,390)"/>
<path d="M0 0 C0 7.59 0 15.18 0 23 C-3.96 24.98 -3.96 24.98 -8 27 C-8.17432891 23.25058747 -8.28085841 19.50221491 -8.375 15.75 C-8.42527344 14.68652344 -8.47554687 13.62304688 -8.52734375 12.52734375 C-8.58312474 9.57095132 -8.56896157 6.90295825 -8 4 C-5.31348225 1.4655493 -3.75717958 0 0 0 Z " fill="#1D1616" transform="translate(257,121)"/>
<path d="M0 0 C8.91 0 17.82 0 27 0 C26.67 1.32 26.34 2.64 26 4 C24.02 3.34 22.04 2.68 20 2 C20.495 10.415 20.495 10.415 21 19 C19.02 19 17.04 19 15 19 C15.33 13.39 15.66 7.78 16 2 C13.36 2 10.72 2 8 2 C8 3.65 8 5.3 8 7 C7.67 7 7.34 7 7 7 C6.67 10.63 6.34 14.26 6 18 C5.67 18 5.34 18 5 18 C5 12.39 5 6.78 5 1 C4.01 1 3.02 1 2 1 C2 4.96 2 8.92 2 13 C1.67 13 1.34 13 1 13 C0.67 8.71 0.34 4.42 0 0 Z " fill="#656363" transform="translate(209,394)"/>
<path d="M0 0 C3.3 0 6.6 0 10 0 C9.67 0.99 9.34 1.98 9 3 C8.01 2.67 7.02 2.34 6 2 C6 4.31 6 6.62 6 9 C7.98 8.67 9.96 8.34 12 8 C12 8.99 12 9.98 12 11 C10.02 11 8.04 11 6 11 C6 13.31 6 15.62 6 18 C10.82194643 17.67495741 10.82194643 17.67495741 14.9375 15.4375 C15.288125 14.963125 15.63875 14.48875 16 14 C15.67 15.65 15.34 17.3 15 19 C10.05 19 5.1 19 0 19 C0 12.73 0 6.46 0 0 Z " fill="#B1B0B0" transform="translate(374,394)"/>
<path d="M0 0 C1.21816406 0.03480469 1.21816406 0.03480469 2.4609375 0.0703125 C3.68683594 0.09738281 3.68683594 0.09738281 4.9375 0.125 C5.87722656 0.15980469 5.87722656 0.15980469 6.8359375 0.1953125 C6.5059375 1.5153125 6.1759375 2.8353125 5.8359375 4.1953125 C5.1759375 3.5353125 4.5159375 2.8753125 3.8359375 2.1953125 C2.5159375 2.1953125 1.1959375 2.1953125 -0.1640625 2.1953125 C0.20924574 4.92105521 0.62788351 6.00353335 2.68359375 7.8984375 C3.41449219 8.40890625 4.14539063 8.919375 4.8984375 9.4453125 C5.63191406 9.96609375 6.36539062 10.486875 7.12109375 11.0234375 C7.96994141 11.60351562 7.96994141 11.60351562 8.8359375 12.1953125 C8.47266291 18.61316355 8.47266291 18.61316355 5.6484375 21.1953125 C2.191377 22.42448957 0.32925374 22.2584957 -3.1640625 21.1953125 C-5.0390625 19.9453125 -5.0390625 19.9453125 -6.1640625 18.1953125 C-6.3515625 15.5078125 -6.3515625 15.5078125 -6.1640625 13.1953125 C-4.1640625 16.9453125 -4.1640625 16.9453125 -4.1640625 19.1953125 C-1.5240625 19.1953125 1.1159375 19.1953125 3.8359375 19.1953125 C4.17015656 16.81893309 4.17015656 16.81893309 3.8359375 14.1953125 C2.10045252 12.51401899 2.10045252 12.51401899 -0.1640625 11.2578125 C-4.09154274 8.57241523 -4.09154274 8.57241523 -4.7890625 4.9453125 C-4.04940105 1.69080213 -3.4644854 0.31267919 0 0 Z " fill="#C1C1C1" transform="translate(272.1640625,393.8046875)"/>
<path d="M0 0 C3.63 0 7.26 0 11 0 C10.67 1.32 10.34 2.64 10 4 C8.68 3.34 7.36 2.68 6 2 C6 4.31 6 6.62 6 9 C8.31 8.34 10.62 7.68 13 7 C13 8.65 13 10.3 13 12 C10.69 11.67 8.38 11.34 6 11 C6 13.31 6 15.62 6 18 C11.3086849 17.41825155 11.3086849 17.41825155 16 15 C16 16.32 16 17.64 16 19 C11.05 19 6.1 19 1 19 C1.01160156 17.79601562 1.02320313 16.59203125 1.03515625 15.3515625 C1.04453434 13.77604321 1.05363452 12.20052225 1.0625 10.625 C1.07087891 9.8309375 1.07925781 9.036875 1.08789062 8.21875 C1.23040151 3.97607778 1.23040151 3.97607778 0 0 Z " fill="#D0D0D0" transform="translate(283,394)"/>
<path d="M0 0 C1.32 0 2.64 0 4 0 C4.33 5.94 4.66 11.88 5 18 C12.02066207 19.75562021 12.02066207 19.75562021 19 20.625 C19.94875 20.69976562 20.8975 20.77453125 21.875 20.8515625 C22.57625 20.90054687 23.2775 20.94953125 24 21 C21.58884042 23.80802747 21.07929684 23.98848917 17.125 24.5625 C10.43363264 24.39659833 4.85619373 20.95891894 -1 18 C-0.505 9.09 -0.505 9.09 0 0 Z " fill="#D3D3D3" transform="translate(147,395)"/>
<path d="M0 0 C0.66 0.33 1.32 0.66 2 1 C1.41476562 1.81855469 0.82953125 2.63710938 0.2265625 3.48046875 C-2.6965535 7.86256732 -4.53682314 12.66475931 -6.53125 17.51757812 C-8.79821244 22.89910622 -8.79821244 22.89910622 -11 24 C-11.23710693 23.49549316 -11.47421387 22.99098633 -11.71850586 22.47119141 C-12.79125238 20.18900927 -13.86437174 17.90700265 -14.9375 15.625 C-15.31068359 14.8309375 -15.68386719 14.036875 -16.06835938 13.21875 C-16.42607422 12.45820313 -16.78378906 11.69765625 -17.15234375 10.9140625 C-17.6472229 9.8614624 -17.6472229 9.8614624 -18.15209961 8.78759766 C-18.75412934 7.51836019 -19.37176381 6.25647238 -20 5 C-17.69 5 -15.38 5 -13 5 C-12.49440092 6.43554025 -11.9957251 7.8735202 -11.5 9.3125 C-11.2215625 10.11300781 -10.943125 10.91351563 -10.65625 11.73828125 C-10 14 -10 14 -10 17 C-9.34 17 -8.68 17 -8 17 C-7.81824219 16.41992188 -7.63648438 15.83984375 -7.44921875 15.2421875 C-3.75182482 3.75182482 -3.75182482 3.75182482 0 0 Z " fill="#C3C3C3" transform="translate(339,389)"/>
<path d="M0 0 C1.19109375 -0.00386719 1.19109375 -0.00386719 2.40625 -0.0078125 C4.5 0.125 4.5 0.125 6.5 1.125 C6.17 2.115 5.84 3.105 5.5 4.125 C4.96375 3.774375 4.4275 3.42375 3.875 3.0625 C0.69296594 1.80643392 -1.24212952 2.20429747 -4.5 3.125 C-6.69398856 6.41598284 -6.71503664 6.97332581 -6.25 10.6875 C-6.16234375 11.47253906 -6.0746875 12.25757813 -5.984375 13.06640625 C-5.64126274 15.33464034 -5.64126274 15.33464034 -3.5 17.125 C0.4164603 17.56016226 2.60932162 17.79902689 5.8125 15.375 C7.33716579 13.34211228 8.50106153 11.45585643 9.5 9.125 C9.00936312 15.6259386 9.00936312 15.6259386 6.76171875 17.828125 C2.85046858 20.07084531 -1.12747794 19.78300089 -5.5 19.125 C-8.43423195 17.32853146 -9.97205355 16.1808929 -11.5 13.125 C-11.875 9.8125 -11.875 9.8125 -11.5 6.125 C-7.88934685 1.75420935 -5.58613868 -0.01813681 0 0 Z " fill="#BDBDBD" transform="translate(362.5,393.875)"/>
<path d="M0 0 C2.97 0 5.94 0 9 0 C9 6.27 9 12.54 9 19 C7.02 19 5.04 19 3 19 C3.33 13.39 3.66 7.78 4 2 C2.68 2 1.36 2 0 2 C0.33 3.32 0.66 4.64 1 6 C0.01 5.67 -0.98 5.34 -2 5 C-1.125 1.125 -1.125 1.125 0 0 Z " fill="#C4C3C3" transform="translate(339,394)"/>
<path d="M0 0 C0.66 0.33 1.32 0.66 2 1 C0.68 2.65 -0.64 4.3 -2 6 C-0.94035767 9.27525811 0.39278645 11.61381469 2.625 14.1875 C5 17 5 17 5 19 C6.1446875 19.433125 6.1446875 19.433125 7.3125 19.875 C10 21 10 21 13 23 C6.18051624 23.83748046 6.18051624 23.83748046 3.05078125 21.6171875 C1.25615095 19.81866429 -0.38156499 17.95765245 -2 16 C-2.825 15.13375 -3.65 14.2675 -4.5 13.375 C-6 11 -6 11 -6.0625 8.5625 C-4.61095176 5.06170719 -2.54464513 2.80563437 0 0 Z " fill="#CAC9C9" transform="translate(170,395)"/>
<path d="M0 0 C0 4.62 0 9.24 0 14 C-3.465 12.02 -3.465 12.02 -7 10 C-7 7.36 -7 4.72 -7 2 C-4.35261084 0.5393715 -3.10551666 0 0 0 Z " fill="#181111" transform="translate(234,134)"/>
<path d="M0 0 C1.32 0 2.64 0 4 0 C4.33 5.94 4.66 11.88 5 18 C3.02 18 1.04 18 -1 18 C-0.505 9.09 -0.505 9.09 0 0 Z " fill="#D6D6D6" transform="translate(225,395)"/>
<path d="M0 0 C1.32 0 2.64 0 4 0 C4.33 5.94 4.66 11.88 5 18 C3.02 18 1.04 18 -1 18 C-0.505 9.09 -0.505 9.09 0 0 Z " fill="#C6C5C5" transform="translate(158,395)"/>
<path d="M0 0 C1.32 0 2.64 0 4 0 C4.33 5.94 4.66 11.88 5 18 C3.02 18 1.04 18 -1 18 C-0.505 9.09 -0.505 9.09 0 0 Z " fill="#CFCFCF" transform="translate(137,395)"/>
<path d="M0 0 C1.32 0 2.64 0 4 0 C4 5.94 4 11.88 4 18 C2.35 18 0.7 18 -1 18 C-0.505 9.09 -0.505 9.09 0 0 Z " fill="#CDCDCD" transform="translate(303,395)"/>
<path d="M0 0 C0.99 0 1.98 0 3 0 C3.01417969 1.16917969 3.02835938 2.33835937 3.04296875 3.54296875 C3.08988438 5.09118457 3.13813169 6.63936044 3.1875 8.1875 C3.19330078 8.95642578 3.19910156 9.72535156 3.20507812 10.51757812 C3.37497047 14.91590226 3.61730518 16.54228997 6.55078125 20.05078125 C7.35902344 20.69402344 8.16726562 21.33726562 9 22 C4.74257863 21.52695318 2.74294902 19.1136178 0 16 C-1.18224668 12.45325997 -0.89329634 10.02477005 -0.5625 6.3125 C-0.46066406 5.13300781 -0.35882813 3.95351563 -0.25390625 2.73828125 C-0.17011719 1.83464844 -0.08632812 0.93101562 0 0 Z " fill="#D4D4D4" transform="translate(211,395)"/>
<path d="M0 0 C1.74965358 -0.05429959 3.49979787 -0.09292823 5.25 -0.125 C6.22453125 -0.14820313 7.1990625 -0.17140625 8.203125 -0.1953125 C11.05499094 0.00384015 12.64412622 0.40951379 15 2 C15.875 4.4375 15.875 4.4375 16 7 C15.01 8.485 15.01 8.485 14 10 C10.375 10.6875 10.375 10.6875 7 11 C7 10.34 7 9.68 7 9 C7.99 8.67 8.98 8.34 10 8 C10 6.35 10 4.7 10 3 C9.36191406 2.95101563 8.72382813 2.90203125 8.06640625 2.8515625 C7.24011719 2.77679688 6.41382813 2.70203125 5.5625 2.625 C4.73878906 2.55539062 3.91507812 2.48578125 3.06640625 2.4140625 C2.38449219 2.27742188 1.70257813 2.14078125 1 2 C0.67 1.34 0.34 0.68 0 0 Z " fill="#B1B0B0" transform="translate(301,394)"/>
<path d="M0 0 C0.99 0.33 1.98 0.66 3 1 C3.73046875 2.84765625 3.73046875 2.84765625 4.1875 5.0625 C4.34605469 5.79597656 4.50460938 6.52945312 4.66796875 7.28515625 C4.77753906 7.85105469 4.88710937 8.41695313 5 9 C2.69 9 0.38 9 -2 9 C-2 10.65 -2 12.3 -2 14 C-3.65 14.33 -5.3 14.66 -7 15 C-7 14.34 -7 13.68 -7 13 C-6.34 12.67 -5.68 12.34 -5 12 C-4.05766495 10.00967415 -3.19285188 7.98212971 -2.375 5.9375 C-1.92898437 4.83277344 -1.48296875 3.72804688 -1.0234375 2.58984375 C-0.51683594 1.30787109 -0.51683594 1.30787109 0 0 Z " fill="#878686" transform="translate(182,399)"/>
<path d="M0 0 C1.258125 0.309375 2.51625 0.61875 3.8125 0.9375 C9.17065177 2.14052452 14.5304832 2.61151096 20 3 C18.40633481 4.89530529 17.47509325 5.8959855 15.01953125 6.43359375 C8.97744146 6.44428771 5.22093726 5.03763622 0 2 C0 1.34 0 0.68 0 0 Z " fill="#B9B9B9" transform="translate(151,413)"/>
<path d="M0 0 C5.94 0 11.88 0 18 0 C17.67 1.32 17.34 2.64 17 4 C15.88625 3.505 15.88625 3.505 14.75 3 C9.4878448 1.59675861 4.4142163 1.84230438 -1 2 C-0.67 1.34 -0.34 0.68 0 0 Z " fill="#878686" transform="translate(218,394)"/>
<path d="M0 0 C0.66 0.33 1.32 0.66 2 1 C1.4225 1.804375 0.845 2.60875 0.25 3.4375 C-2.39106393 7.37079879 -4.17915932 11.64160476 -6 16 C-6.66 15.67 -7.32 15.34 -8 15 C-7.23856331 13.05878789 -6.46548643 11.12213883 -5.6875 9.1875 C-5.25824219 8.10855469 -4.82898438 7.02960938 -4.38671875 5.91796875 C-3.14663459 3.30855223 -2.18468549 1.82591016 0 0 Z " fill="#B8B7B7" transform="translate(339,389)"/>
<path d="M0 0 C0 1.98 0 3.96 0 6 C-2.91517292 4.92598892 -4.77810176 4.22189824 -7 2 C-4.35261084 0.5393715 -3.10551666 0 0 0 Z " fill="#DBCFCF" transform="translate(226,137)"/>
<path d="M0 0 C3.63 0 7.26 0 11 0 C10.67 1.32 10.34 2.64 10 4 C9.1646875 3.505 9.1646875 3.505 8.3125 3 C5.69715478 1.8690399 3.8193354 1.84337026 1 2 C0.67 1.34 0.34 0.68 0 0 Z " fill="#878585" transform="translate(283,394)"/>
<path d="M0 0 C2.1640625 -0.29296875 2.1640625 -0.29296875 4.625 -0.1875 C5.44226563 -0.16042969 6.25953125 -0.13335937 7.1015625 -0.10546875 C8.04128906 -0.05326172 8.04128906 -0.05326172 9 0 C8.67 1.32 8.34 2.64 8 4 C7.34 3.34 6.68 2.68 6 2 C4.0068433 1.97624074 4.0068433 1.97624074 1.875 2.375 C0.59625 2.58125 -0.6825 2.7875 -2 3 C-1.34 2.01 -0.68 1.02 0 0 Z " fill="#A3A2A2" transform="translate(270,394)"/>
<path d="M0 0 C0 1.65 0 3.3 0 5 C-2.31 4.67 -4.62 4.34 -7 4 C-7 3.34 -7 2.68 -7 2 C-1.125 0 -1.125 0 0 0 Z " fill="#878686" transform="translate(296,401)"/>
<path d="M0 0 C2.75 -0.25 2.75 -0.25 6 0 C8.375 2 8.375 2 10 4 C6.13304322 4 3.4911548 2.58090029 0 1 C0 0.67 0 0.34 0 0 Z " fill="#AFAEAE" transform="translate(103,391)"/>
</svg>
